<svg width="88" height="88" viewBox="0 0 88 88" fill="none" xmlns="http://www.w3.org/2000/svg">
<path d="M71.995 35.1038L69.5612 30.91C69.2725 30.3875 69.1075 29.7825 69.1075 29.1775V24.3238C69.1075 23.0863 68.4475 21.945 67.3887 21.34L63.1812 18.9063C62.6587 18.6038 62.2187 18.1775 61.93 17.655L59.4962 13.4475C58.8637 12.3888 57.7362 11.7288 56.5125 11.7288H51.645C51.0537 11.7288 50.4487 11.5638 49.94 11.2613L45.7325 8.84126C44.6737 8.22251 43.34 8.22251 42.2812 8.84126L38.0737 11.2613C37.5512 11.5638 36.96 11.7288 36.3687 11.7288H31.5012C30.2775 11.7288 29.1362 12.3888 28.5175 13.4475L26.0837 17.655C25.795 18.1775 25.355 18.6038 24.8325 18.9063L20.625 21.34C19.5662 21.9588 18.9062 23.0863 18.9062 24.3238V29.1775C18.9062 29.7963 18.7412 30.3875 18.4387 30.91L16.005 35.1038C15.3862 36.1625 15.3862 37.4963 16.005 38.555L18.4387 42.7488C18.7412 43.2713 18.9062 43.8763 18.9062 44.4813V45.4163C19.69 45.1275 20.5425 44.9625 21.4087 44.9625H27.115L25.7812 42.625C25.4787 42.1025 25.3137 41.4975 25.3137 40.9063V32.7388C25.3137 32.1338 25.4787 31.5425 25.7812 31.02L29.865 23.9388C30.1675 23.4163 30.6075 22.9763 31.13 22.6738L38.2112 18.59C38.72 18.2875 39.325 18.1225 39.93 18.1225H48.0975C48.6887 18.1225 49.2937 18.2875 49.8162 18.59L56.8975 22.6738C57.42 22.9763 57.86 23.4163 58.1625 23.9388L62.2462 31.02C62.5487 31.5425 62.7 32.1338 62.7 32.7388V40.9063C62.7 41.4975 62.5487 42.1025 62.2462 42.625L60.9125 44.9625H66.5912C67.485 44.9625 68.3375 45.1275 69.1212 45.43V44.4813C69.1212 43.8763 69.2862 43.2713 69.575 42.7488L72.0087 38.555C72.6412 37.4963 72.6412 36.1625 72.0087 35.1038H71.995Z" fill="#76BE81"/>
<path d="M58.7125 36.8225C58.7125 28.71 52.1262 22.1238 44 22.1238C35.8737 22.1238 29.3012 28.71 29.3012 36.8225C29.3012 39.8338 30.2087 42.6388 31.7762 44.9625H56.2375C57.805 42.625 58.7125 39.8338 58.7125 36.8225Z" fill="#76BE81"/>
<path d="M30.6762 73.1362C30.25 75.6662 28.9162 77.9762 26.9087 79.6125H2.79124C1.69124 79.6125 1.01749 78.4162 1.58124 77.4812L5.32124 71.2662L1.58124 65.065C1.01749 64.13 1.69124 62.9337 2.79124 62.9337H14.1075V65.835C14.1075 69.85 17.3937 73.1362 21.4087 73.1362H30.6762Z" fill="#76BE81"/>
<path d="M82.6787 71.28L86.4187 77.495C86.9825 78.43 86.3087 79.6263 85.2087 79.6263H61.105C59.0975 77.9763 57.75 75.68 57.3375 73.15H66.5912C70.6062 73.15 73.8925 69.8638 73.8925 65.8488V62.9475H85.2225C86.3225 62.9475 86.9962 64.1438 86.4325 65.0788L82.6925 71.28H82.6787Z" fill="#76BE81"/>
<path d="M68.5162 51.2601C68.1725 50.5451 67.4437 50.0638 66.5775 50.0638H21.4087C20.5837 50.0638 19.855 50.5313 19.4837 51.2326C19.305 51.5351 19.2087 51.8926 19.2087 52.2638V65.8488C19.2087 67.0726 20.1987 68.0488 21.4087 68.0488H66.5775C67.8012 68.0488 68.7775 67.0726 68.7775 65.8488V52.2638C68.7775 51.9063 68.695 51.5626 68.5162 51.2601ZM42.9137 53.7626L39.8337 64.6113C39.7787 64.8313 39.5725 64.9688 39.3525 64.9688H37.8812C37.6475 64.9688 37.455 64.8038 37.4 64.5838C37.4 64.5838 35.7912 57.9701 35.75 57.7501C35.695 57.9701 33.8662 64.5976 33.8662 64.5976C33.8112 64.8176 33.6187 64.9551 33.385 64.9551H31.9137C31.6937 64.9551 31.4875 64.7901 31.4325 64.5701L28.6825 53.7213C28.6412 53.5701 28.6825 53.4188 28.765 53.2813C28.8612 53.1713 29.0125 53.0888 29.1637 53.0888H30.6487C30.8825 53.0888 31.0887 53.2538 31.1437 53.4876L32.78 60.4863L34.6362 53.4738C34.6775 53.3226 34.7875 53.1988 34.925 53.1438C34.98 53.1163 35.035 53.1026 35.1175 53.1026H36.5887C36.8225 53.1026 37.0287 53.2676 37.07 53.4876L38.72 60.4038L40.5075 53.4876C40.5625 53.2676 40.7687 53.1026 41.0025 53.1026H42.4325C42.5975 53.1026 42.735 53.1713 42.845 53.3088C42.9275 53.4188 42.955 53.5976 42.9137 53.7488V53.7626ZM47.2037 64.4876C47.2037 64.7626 46.9837 64.9826 46.695 64.9826H45.2925C45.0175 64.9826 44.7975 64.7626 44.7975 64.4876V53.6388C44.7975 53.3501 45.0175 53.1301 45.2925 53.1301H46.695C46.9837 53.1301 47.2037 53.3501 47.2037 53.6388V64.4876ZM59.29 64.4876C59.29 64.7626 59.07 64.9826 58.795 64.9826H57.3787C57.2 64.9826 57.0487 64.9001 56.9387 64.7488L52.47 57.5163V64.4738C52.47 64.7488 52.2362 64.9688 51.9612 64.9688H50.6412C50.3662 64.9688 50.1462 64.7488 50.1462 64.4738V53.6251C50.1462 53.3363 50.3662 53.1163 50.6412 53.1163H52.1812C52.3462 53.1163 52.4975 53.1988 52.6075 53.3501L52.6487 53.4051L56.98 60.3213V53.6251C56.98 53.3363 57.2 53.1163 57.475 53.1163H58.795C59.07 53.1163 59.29 53.3363 59.29 53.6251V64.4738V64.4876Z" fill="#76BE81"/>
</svg>
